<?xml version="1.0" encoding="utf-8"?>
<svg version="1.1" xmlns:xlink="http://www.w3.org/1999/xlink" width="26px" height="26px" xmlns="http://www.w3.org/2000/svg">
  <g transform="matrix(1 0 0 1 -24 -525 )">
    <path d="M 9.28835227272727 21.5143229166667  C 9.39914772727273 21.4127604166667  9.45454545454546 21.2829861111111  9.45454545454546 21.125  L 9.45454545454546 9.20833333333333  C 9.45454545454546 9.05034722222222  9.39914772727273 8.92057291666667  9.28835227272727 8.81901041666667  C 9.17755681818182 8.71744791666667  9.03598484848485 8.66666666666667  8.86363636363636 8.66666666666667  L 7.68181818181818 8.66666666666667  C 7.5094696969697 8.66666666666667  7.36789772727273 8.71744791666667  7.25710227272727 8.81901041666667  C 7.14630681818182 8.92057291666667  7.09090909090909 9.05034722222222  7 9.20833333333333  L 7 21.125  C 7.09090909090909 21.2829861111111  7.14630681818182 21.4127604166667  7.25710227272727 21.5143229166667  C 7.36789772727273 21.6158854166667  7.5094696969697 21.6666666666667  7.68181818181818 21.6666666666667  L 8.86363636363636 21.6666666666667  C 9.03598484848485 21.6666666666667  9.17755681818182 21.6158854166667  9.28835227272727 21.5143229166667  Z M 14.015625 21.5143229166667  C 14.1264204545455 21.4127604166667  14.1818181818182 21.2829861111111  14 21.125  L 14 9.20833333333333  C 14.1818181818182 9.05034722222222  14.1264204545455 8.92057291666667  14.015625 8.81901041666667  C 13.9048295454545 8.71744791666667  13.7632575757576 8.66666666666667  13.5909090909091 8.66666666666667  L 12.4090909090909 8.66666666666667  C 12.2367424242424 8.66666666666667  12.0951704545455 8.71744791666667  11.984375 8.81901041666667  C 11.8735795454545 8.92057291666667  11.8181818181818 9.05034722222222  12 9.20833333333333  L 12 21.125  C 11.8181818181818 21.2829861111111  11.8735795454545 21.4127604166667  11.984375 21.5143229166667  C 12.0951704545455 21.6158854166667  12.2367424242424 21.6666666666667  12.4090909090909 21.6666666666667  L 13.5909090909091 21.6666666666667  C 13.7632575757576 21.6666666666667  13.9048295454545 21.6158854166667  14.015625 21.5143229166667  Z M 18.7428977272727 21.5143229166667  C 18.8536931818182 21.4127604166667  18.9090909090909 21.2829861111111  19 21.125  L 19 9.20833333333333  C 18.9090909090909 9.05034722222222  18.8536931818182 8.92057291666667  18.7428977272727 8.81901041666667  C 18.6321022727273 8.71744791666667  18.4905303030303 8.66666666666667  18.3181818181818 8.66666666666667  L 17.1363636363636 8.66666666666667  C 16.9640151515152 8.66666666666667  16.8224431818182 8.71744791666667  16.7116477272727 8.81901041666667  C 16.6008522727273 8.92057291666667  16.5454545454545 9.05034722222222  16.5454545454545 9.20833333333333  L 16.5454545454545 21.125  C 16.5454545454545 21.2829861111111  16.6008522727273 21.4127604166667  16.7116477272727 21.5143229166667  C 16.8224431818182 21.6158854166667  16.9640151515152 21.6666666666667  17.1363636363636 21.6666666666667  L 18.3181818181818 21.6666666666667  C 18.4905303030303 21.6666666666667  18.6321022727273 21.6158854166667  18.7428977272727 21.5143229166667  Z M 9.76846590909091 2.35286458333333  L 8.86363636363636 4.33333333333333  L 17.1363636363636 4.33333333333333  L 16.25 2.35286458333333  C 16.1638257575758 2.25130208333333  16.0591856060606 2.18923611111111  15.9360795454545 2.16666666666667  L 10.0823863636364 2.16666666666667  C 9.9592803030303 2.18923611111111  9.85464015151515 2.25130208333333  9.76846590909091 2.35286458333333  Z M 25.8338068181818 4.48567708333333  C 25.9446022727273 4.58723958333333  26 4.71701388888889  26 4.875  L 26 5.95833333333333  C 26 6.11631944444444  25.9446022727273 6.24609375  25.8338068181818 6.34765625  C 25.7230113636364 6.44921875  25.5814393939394 6.5  25.4090909090909 6.5  L 23.6363636363636 6.5  L 23.6363636363636 22.546875  C 23.6363636363636 23.4835069444444  23.3470643939394 24.2931857638889  22.7684659090909 24.9759114583333  C 22.1898674242424 25.6586371527778  21.4943181818182 26  20.6818181818182 26  L 5.31818181818182 26  C 4.50568181818182 26  3.81013257575758 25.669921875  3.23153409090909 25.009765625  C 2.65293560606061 24.349609375  2.36363636363636 23.5512152777778  2.36363636363636 22.6145833333333  L 2.36363636363636 6.5  L 0.590909090909091 6.5  C 0.418560606060606 6.5  0.276988636363636 6.44921875  0.166193181818182 6.34765625  C 0.0553977272727273 6.24609375  0 6.11631944444444  0 5.95833333333333  L 0 4.875  C 0 4.71701388888889  0.0553977272727273 4.58723958333333  0.166193181818182 4.48567708333333  C 0.276988636363636 4.38411458333333  0.418560606060606 4.33333333333333  0.590909090909091 4.33333333333333  L 6.296875 4.33333333333333  L 7.58948863636364 1.50651041666667  C 7.77414772727273 1.08897569444444  8.10653409090909 0.733506944444442  8.58664772727273 0.440104166666668  C 9.06676136363637 0.146701388888887  9.5530303030303 0  10.0454545454545 0  L 15.9545454545455 0  C 16.4469696969697 0  16.9332386363636 0.146701388888887  17.4133522727273 0.440104166666668  C 17.8934659090909 0.733506944444442  18.2258522727273 1.08897569444444  18.4105113636364 1.50651041666667  L 19.703125 4.33333333333333  L 25.4090909090909 4.33333333333333  C 25.5814393939394 4.33333333333333  25.7230113636364 4.38411458333333  25.8338068181818 4.48567708333333  Z " fill-rule="nonzero" fill="#000000" stroke="none" transform="matrix(1 0 0 1 24 525 )" />
  </g>
</svg>