<?xml version="1.0" encoding="utf-8"?>
<svg version="1.1" xmlns:xlink="http://www.w3.org/1999/xlink" width="48px" height="50px" xmlns="http://www.w3.org/2000/svg">
  <g transform="matrix(1 0 0 1 -231 -1069 )">
    <path d="M 33.9850441876275 43.8313802083333  C 36.8021753908906 42.4967447916667  39.2005438477226 40.6358506944444  41.1801495581237 38.2486979166667  C 40.0054384772264 38.4440104166667  38.8089734874235 38.5416666666667  37.5907545887152 38.5416666666667  C 33.631543167913 38.5416666666667  29.9660095173351 37.5651041666667  26.5941536369816 35.6119791666667  C 23.2222977566281 33.6588541666667  20.5574439157036 31.0004340277778  18.599592114208 27.63671875  C 16.6417403127124 24.2730034722222  15.6628144119647 20.6163194444444  15.6628144119646 16.6666666666667  C 15.6628144119647 12.5  16.794017675051 8.62630208333333  19.0564242012237 5.04557291666667  C 14.6838885112169 6.34765625  11.1108089734874 8.83246527777777  8.33718558803535 12.5  C 5.56356220258328 16.1675347222222  4.17675050985724 20.3342013888889  4.17675050985724 25  C 4.17675050985724 27.8211805555556  4.73147518694765 30.517578125  5.84092454112848 33.0891927083333  C 6.95037389530931 35.6608072916667  8.43507817811013 37.8743489583333  10.2950373895309 39.7298177083333  C 12.1549966009517 41.5852864583333  14.3738953093134 43.06640625  16.9517335146159 44.1731770833333  C 19.5295717199184 45.2799479166667  22.2324949014276 45.8333333333333  25.0605030591434 45.8333333333333  C 28.1930659415364 45.8333333333333  31.1679129843644 45.166015625  33.9850441876275 43.8313802083333  Z M 47.9510537049626 34.2447916666667  C 48.0271923861319 34.6788194444444  47.9782460910945 35.0911458333333  47.8042148198504 35.4817708333333  C 45.7593473827328 39.8871527777778  42.6757307953773 43.408203125  38.5533650577838 46.044921875  C 34.4309993201903 48.681640625  29.9333786539769 50  25.0605030591434 50  C 21.6668932698844 50  18.425560842964 49.3381076388889  15.3365057783821 48.0143229166667  C 12.2474507138001 46.6905381944444  9.58259687287559 44.9110243055556  7.34194425560843 42.67578125  C 5.10129163834126 40.4405381944444  3.31747110808974 37.7821180555556  1.99048266485384 34.7005208333333  C 0.663494221617947 31.6189236111111  0 28.3854166666667  0 25  C 0 21.6796875  0.625424881033311 18.505859375  1.87627464309993 15.478515625  C 3.12712440516655 12.451171875  4.82392929979606 9.83072916666667  6.96668932698844 7.6171875  C 9.10944935418083 5.40364583333333  11.6709721278042 3.61870659722222  14.6512576478586 2.26236979166667  C 17.631543167913 0.90603298611111  20.7858599592114 0.162760416666669  24.1142080217539 0.0325520833333315  C 25.0713800135962 -0.0108506944444531  25.7348742352141 0.412326388888884  26.1046906866077 1.30208333333333  C 26.4962610469069 2.19184027777777  26.3331067301156 2.97309027777777  25.6152277362339 3.64583333333333  C 23.7443915703603 5.33854166666667  22.3140720598233 7.30794270833333  21.3242692046227 9.55403645833333  C 20.3344663494222 11.8001302083333  19.8395649218219 14.1710069444444  19.8395649218219 16.6666666666667  C 19.8395649218219 19.8784722222222  20.6335825968729 22.8407118055556  22.2216179469748 25.5533854166667  C 23.8096532970768 28.2660590277778  25.963290278722 30.4144965277778  28.6825288919103 31.9986979166667  C 31.4017675050986 33.5828993055556  34.3711760707002 34.375  37.5907545887152 34.375  C 40.1577158395649 34.375  42.6376614547927 33.8216145833333  45.0305914343984 32.71484375  C 45.9225016995241 32.32421875  46.7056424201224 32.4652777777778  47.3800135961931 33.1380208333333  C 47.6845683208702 33.4418402777778  47.8749150237933 33.8107638888889  47.9510537049626 34.2447916666667  Z " fill-rule="nonzero" fill="#000000" stroke="none" transform="matrix(1 0 0 1 231 1069 )" />
  </g>
</svg>