<?xml version="1.0" encoding="utf-8"?>
<svg version="1.1" xmlns:xlink="http://www.w3.org/1999/xlink" width="19px" height="19px" xmlns="http://www.w3.org/2000/svg">
  <g transform="matrix(1 0 0 1 -252 -145 )">
    <path d="M 9.69568106312292 11.4049479166667  L 9.69568106312292 8.13932291666667  L 18.8485049833887 8.13932291666667  C 18.9495016611296 8.69184027777778  19 9.21961805555555  19 9.72265625  C 19 11.5121527777778  18.6170542635659 13.1099175347222  17.8511627906977 14.5159505208333  C 17.0852713178295 15.9219835069444  15.9932447397564 17.0208333333333  14.5750830564784 17.8125  C 13.1569213732004 18.6041666666667  11.5304540420819 19  9.69568106312292 19  C 8.37430786267996 19  7.11605758582503 18.7505425347222  5.92093023255814 18.2516276041667  C 4.72580287929125 17.7527126736111  3.69479512735327 17.0785590277778  2.82790697674419 16.2291666666667  C 1.9610188261351 15.3797743055556  1.27297895902547 14.3695746527778  0.763787375415282 13.1985677083333  C 0.254595791805094 12.0275607638889  0 10.7947048611111  0 9.5  C 0 8.20529513888889  0.254595791805094 6.97243923611111  0.763787375415282 5.80143229166667  C 1.27297895902547 4.63042534722222  1.9610188261351 3.62022569444444  2.82790697674419 2.77083333333333  C 3.69479512735327 1.92144097222222  4.72580287929125 1.24728732638889  5.92093023255814 0.748372395833334  C 7.11605758582503 0.249457465277776  8.37430786267996 0  9.69568106312292 0  C 12.2205980066445 0  14.3878183831672 0.828776041666666  16.197342192691 2.486328125  L 13.558803986711 4.97265625  C 12.5235880398671 3.99131944444444  11.2358803986711 3.50065104166667  9.69568106312292 3.50065104166667  C 8.60996677740864 3.50065104166667  7.6063122923588 3.76866319444444  6.68471760797342 4.3046875  C 5.76312292358804 4.84071180555555  5.03300110741971 5.56846788194444  4.49435215946844 6.48795572916667  C 3.95570321151717 7.40744357638889  3.68637873754153 8.41145833333333  3.68637873754153 9.5  C 3.68637873754153 10.5885416666667  3.95570321151717 11.5925564236111  4.49435215946844 12.5120442708333  C 5.03300110741971 13.4315321180556  5.76312292358804 14.1592881944444  6.68471760797342 14.6953125  C 7.6063122923588 15.2313368055556  8.60996677740864 15.4993489583333  9.69568106312292 15.4993489583333  C 10.4279069767442 15.4993489583333  11.1012181616833 15.400390625  11.7156146179402 15.2024739583333  C 12.3300110741971 15.0045572916667  12.8349944629014 14.7571614583333  13.2305647840532 14.4602864583333  C 13.6261351052049 14.1634114583333  13.9712070874862 13.8253038194444  14.265780730897 13.4459635416667  C 14.5603543743079 13.0666232638889  14.7770764119601 12.7078993055556  14.9159468438538 12.3697916666667  C 15.0548172757475 12.0316840277778  15.1495016611296 11.7100694444444  15.2 11.4049479166667  L 9.69568106312292 11.4049479166667  Z " fill-rule="nonzero" fill="#aaaaaa" stroke="none" transform="matrix(1 0 0 1 252 145 )" />
  </g>
</svg>