<?xml version="1.0" encoding="utf-8"?>
<svg version="1.1" xmlns:xlink="http://www.w3.org/1999/xlink" width="51px" height="50px" xmlns="http://www.w3.org/2000/svg">
  <g transform="matrix(1 0 0 1 -592 -1187 )">
    <path d="M 9.5625 0  L 41.4375 0  C 44.0716145833333 0  46.3238932291667 0.916883680555552  48.1943359375 2.75065104166667  C 50.0647786458333 4.58441840277777  51 6.79253472222222  51 9.375  L 51 40.625  C 51 43.2074652777778  50.0647786458333 45.4155815972222  48.1943359375 47.2493489583333  C 46.3238932291667 49.0831163194444  44.0716145833333 50  41.4375 50  L 35 50  L 35 30.6315104166667  L 41.802734375 30.6315104166667  L 42.798828125 23.0794270833333  L 35.1953125 23.0794270833333  L 35.1953125 18.26171875  C 35.1953125 17.0464409722222  35.4554036458333 16.1349826388889  35.9755859375 15.52734375  C 36.4957682291667 14.9197048611111  37.5084635416667 14.6158854166667  39.013671875 14.6158854166667  L 43.064453125 14.5833333333333  L 43.064453125 7.84505208333333  C 41.669921875 7.64973958333333  39.6998697916667 7.55208333333333  37.154296875 7.55208333333333  C 34.1438802083333 7.55208333333333  31.7366536458333 8.42013888888888  29.9326171875 10.15625  C 28.1285807291667 11.8923611111111  27.2265625 14.3446180555556  27.2265625 17.5130208333333  L 27.2265625 23.0794270833333  L 20.5859375 23.0794270833333  L 20.5859375 30.6315104166667  L 27 30.6315104166667  L 27 50  L 9.5625 50  C 6.92838541666667 50  4.67610677083333 49.0831163194444  2.8056640625 47.2493489583333  C 0.935221354166667 45.4155815972222  0 43.2074652777778  0 40.625  L 0 9.375  C 0 6.79253472222222  0.935221354166667 4.58441840277777  2.8056640625 2.75065104166667  C 4.67610677083333 0.916883680555552  6.92838541666667 0  9.5625 0  Z " fill-rule="nonzero" fill="#3b5998" stroke="none" transform="matrix(1 0 0 1 592 1187 )" />
  </g>
</svg>