<?xml version="1.0" encoding="utf-8"?>
<svg version="1.1" xmlns:xlink="http://www.w3.org/1999/xlink" width="50px" height="29px" xmlns="http://www.w3.org/2000/svg">
  <g transform="matrix(1 0 0 1 -316 -861 )">
    <path d="M 13.5308159722222 15.2614644970414  C 13.9286747685185 15.6547090729783  14.1276041666667 16.1230276134122  14.1276041666667 16.6664201183432  C 14.1276041666667 17.2241124260355  13.9286747685185 17.6995808678501  13.5308159722222 18.092825443787  C 13.1329571759259 18.4860700197239  12.6591435185185 18.6826923076923  12.109375 18.6826923076923  C 11.5451388888889 18.6826923076923  11.0640914351852 18.4860700197239  10.6662326388889 18.092825443787  C 10.2683738425926 17.6995808678501  10.0694444444444 17.2241124260355  10.0694444444444 16.6664201183432  C 10.0694444444444 16.1230276134122  10.2683738425926 15.6547090729783  10.6662326388889 15.2614644970414  C 11.0640914351852 14.8682199211045  11.5451388888889 14.6715976331361  12.109375 14.6715976331361  C 12.6591435185185 14.6715976331361  13.1329571759259 14.8682199211045  13.5308159722222 15.2614644970414  Z M 38.57421875 15.2292899408284  C 38.9720775462963 15.6153846153846  39.1710069444444 16.0872781065089  39.1710069444444 16.6449704142012  C 39.1710069444444 17.2026627218935  38.9720775462963 17.6781311637081  38.57421875 18.071375739645  C 38.1763599537037 18.4646203155819  37.6953125 18.6612426035503  37.1310763888889 18.6612426035503  C 36.5668402777778 18.6612426035503  36.0857928240741 18.4646203155819  35.6879340277778 18.071375739645  C 35.2900752314815 17.6781311637081  35.0911458333333 17.2026627218935  35.0911458333333 16.6449704142012  C 35.0911458333333 16.0872781065089  35.2900752314815 15.6153846153846  35.6879340277778 15.2292899408284  C 36.0857928240741 14.8431952662722  36.5668402777778 14.6501479289941  37.1310763888889 14.6501479289941  C 37.6953125 14.6501479289941  38.1763599537037 14.8431952662722  38.57421875 15.2292899408284  Z M 15.3754340277778 19.5943047337278  C 16.1928530092593 18.786365877712  16.6015625 17.8104043392505  16.6015625 16.6664201183432  C 16.6015625 15.5367357001972  16.1928530092593 14.564349112426  15.3754340277778 13.7492603550296  C 14.5580150462963 12.9341715976331  13.5706018518519 12.5266272189349  12.4131944444444 12.5266272189349  C 11.255787037037 12.5266272189349  10.2683738425926 12.9305966469428  9.45095486111111 13.7385355029586  C 8.63353587962963 14.5464743589744  8.22482638888889 15.5224358974359  8.22482638888889 16.6664201183432  C 8.22482638888889 17.8104043392505  8.63353587962963 18.786365877712  9.45095486111111 19.5943047337278  C 10.2683738425926 20.4022435897436  11.255787037037 20.8062130177515  12.4131944444444 20.8062130177515  C 13.5706018518519 20.8062130177515  14.5580150462963 20.4022435897436  15.3754340277778 19.5943047337278  Z M 40.3971354166667 19.5728550295858  C 41.2145543981482 18.76491617357  41.6232638888889 17.7889546351085  41.6232638888889 16.6449704142012  C 41.6232638888889 15.5009861932939  41.2145543981482 14.5250246548323  40.3971354166667 13.7170857988166  C 39.5797164351852 12.9091469428008  38.5923032407407 12.5051775147929  37.4348958333333 12.5051775147929  C 36.2919560185185 12.5051775147929  35.3081597222222 12.9091469428008  34.4835069444444 13.7170857988166  C 33.6588541666667 14.5250246548323  33.2465277777778 15.5009861932939  33.2465277777778 16.6449704142012  C 33.2465277777778 17.7889546351085  33.6552372685185 18.76491617357  34.47265625 19.5728550295858  C 35.2900752314815 20.3807938856016  36.2774884259259 20.7847633136095  37.4348958333333 20.7847633136095  C 38.5923032407407 20.7847633136095  39.5797164351852 20.3807938856016  40.3971354166667 19.5728550295858  Z M 16.6775173611111 12.4515532544379  C 17.8566261574074 13.6169871794872  18.4461805555556 15.021942800789  18.4461805555556 16.6664201183432  C 18.4461805555556 18.3251972386588  17.8566261574074 19.7373027613412  16.6775173611111 20.9027366863905  C 15.4984085648148 22.0681706114398  14.0769675925926 22.6508875739645  12.4131944444444 22.6508875739645  C 10.7349537037037 22.6508875739645  9.30627893518519 22.0645956607495  8.12717013888889 20.8920118343195  C 6.94806134259259 19.7194280078895  6.35850694444444 18.3108974358974  6.35850694444444 16.6664201183432  C 6.35850694444444 15.021942800789  6.95167824074074 13.6169871794872  8.13802083333333 12.4515532544379  C 9.32436342592593 11.2861193293886  10.7494212962963 10.7034023668639  12.4131944444444 10.7034023668639  C 14.0769675925926 10.7034023668639  15.4984085648148 11.2861193293886  16.6775173611111 12.4515532544379  Z M 41.7209201388889 12.4301035502959  C 42.9000289351852 13.5955374753452  43.4895833333333 15.0004930966469  43.4895833333333 16.6449704142012  C 43.4895833333333 18.2894477317554  42.9000289351852 19.6944033530572  41.7209201388889 20.8598372781065  C 40.5418113425926 22.0252712031558  39.1131365740741 22.6079881656805  37.4348958333333 22.6079881656805  C 35.7711226851852 22.6079881656805  34.349681712963 22.0252712031558  33.1705729166667 20.8598372781065  C 31.9914641203704 19.6944033530572  31.4019097222222 18.2894477317554  31.4019097222222 16.6449704142012  C 31.4019097222222 15.0004930966469  31.9914641203704 13.5955374753452  33.1705729166667 12.4301035502959  C 34.349681712963 11.2646696252465  35.7711226851852 10.6819526627219  37.4348958333333 10.6819526627219  C 39.1131365740741 10.6819526627219  40.5418113425926 11.2646696252465  41.7209201388889 12.4301035502959  Z M 19.62890625 23.7126479289941  C 21.5892650462963 21.7750246548323  22.5694444444444 19.4405818540434  22.5694444444444 16.7093195266272  C 22.5694444444444 13.978057199211  21.5892650462963 11.6436143984221  19.62890625 9.70599112426035  C 17.6685474537037 7.76836785009862  15.306712962963 6.79955621301775  12.5434027777778 6.79955621301775  C 10.7349537037037 6.79955621301775  9.06394675925926 7.24285009861933  7.53038194444444 8.12943786982248  C 5.99681712962963 9.01602564102564  4.78153935185185 10.2207840236686  3.88454861111111 11.7437130177515  C 2.98755787037037 13.2666420118343  2.5390625 14.9218441814596  2.5390625 16.7093195266272  C 2.5390625 18.4967948717949  2.98755787037037 20.1519970414201  3.88454861111111 21.674926035503  C 4.78153935185185 23.1978550295858  5.99681712962963 24.4026134122288  7.53038194444444 25.289201183432  C 9.06394675925926 26.1757889546351  10.7349537037037 26.6190828402367  12.5434027777778 26.6190828402367  C 15.306712962963 26.6190828402367  17.6685474537037 25.6502712031558  19.62890625 23.7126479289941  Z M 32.3567708333333 5.49112426035503  C 33.8469328703704 4.81903353057199  35.4166666666667 4.46153846153846  37.0659722222222 4.41863905325444  C 33.3912037037037 2.83136094674556  29.369212962963 2.03772189349112  25 2.03772189349112  C 20.384837962963 2.03772189349112  16.2398726851852 2.82421104536489  12.5651041666667 4.39718934911243  C 14.2578125 4.39718934911243  15.8709490740741 4.72250986193294  17.4045138888889 5.37315088757397  C 18.9380787037037 6.02379191321499  20.2582465277778 6.89965483234714  21.3650173611111 8.00073964497041  C 22.4717881944444 9.10182445759369  23.3543113425926 10.4102564102564  24.0125868055556 11.9260355029586  C 24.6708622685185 13.4418145956607  25 15.0362426035503  25 16.7093195266272  C 25 15.064842209073  25.3146701388889 13.4954388560158  25.9440104166667 12.0011094674556  C 26.5733506944444 10.5067800788955  27.4269386574074 9.21622287968442  28.5047743055556 8.12943786982248  C 29.5826099537037 7.04265285996055  30.8666087962963 6.16321499013806  32.3567708333333 5.49112426035503  Z M 44.53125 23.7126479289941  C 46.484375 21.7750246548323  47.4609375 19.4405818540434  47.4609375 16.7093195266272  C 47.4609375 13.978057199211  46.484375 11.6436143984221  44.53125 9.70599112426035  C 42.578125 7.76836785009862  40.2199074074074 6.79955621301775  37.4565972222222 6.79955621301775  C 34.693287037037 6.79955621301775  32.3314525462963 7.76836785009862  30.37109375 9.70599112426035  C 28.4107349537037 11.6436143984221  27.4305555555556 13.978057199211  27.4305555555556 16.7093195266272  C 27.4305555555556 19.4405818540434  28.4107349537037 21.7750246548323  30.37109375 23.7126479289941  C 32.3314525462963 25.6502712031558  34.693287037037 26.6190828402367  37.4565972222222 26.6190828402367  C 40.2199074074074 26.6190828402367  42.578125 25.6502712031558  44.53125 23.7126479289941  Z M 34.1362847222222 1.20118343195266  C 36.986400462963 2.00197238658777  39.5037615740741 3.12450690335305  41.6883680555556 4.56878698224852  L 50 4.56878698224852  C 49.3634259259259 5.29807692307692  48.8208912037037 6.11674063116371  48.3723958333333 7.02477810650888  C 47.923900462963 7.93281558185404  47.6345486111111 8.75147928994083  47.5043402777778 9.48076923076923  C 49.095775462963 11.6400394477318  49.8914930555556 14.0495562130178  49.8914930555556 16.7093195266272  C 49.8914930555556 18.9400887573964  49.3344907407407 20.9992603550296  48.2204861111111 22.8868343195266  C 47.1064814814815 24.7744082840237  45.5946180555556 26.2651627218935  43.6848958333333 27.3590976331361  C 41.7751736111111 28.4530325443787  39.6990740740741 29  37.4565972222222 29  C 35.5324074074074 29  33.7311921296296 28.5996055226824  32.0529513888889 27.7988165680473  C 30.3747106481482 26.9980276134122  28.9568865740741 25.8897928994083  27.7994791666667 24.4741124260355  C 27.1195023148148 25.2749013806706  26.1863425925926 26.5547337278106  25 28.3136094674556  C 24.8408564814815 27.9990138067061  24.4538483796296 27.4091469428008  23.8389756944444 26.5440088757396  C 23.2241030092593 25.6788708086785  22.6851851851852 24.9817554240631  22.2222222222222 24.4526627218935  C 21.0648148148148 25.8683431952663  19.6433738425926 26.9801528599606  17.9578993055556 27.7880917159763  C 16.2724247685185 28.5960305719921  14.4675925925926 29  12.5434027777778 29  C 10.3009259259259 29  8.22482638888889 28.4530325443787  6.31510416666667 27.3590976331361  C 4.40538194444444 26.2651627218935  2.89351851851852 24.7744082840237  1.77951388888889 22.8868343195266  C 0.665509259259259 20.9992603550296  0.108506944444444 18.9400887573964  0.108506944444444 16.7093195266272  C 0.108506944444444 14.0495562130178  0.904224537037037 11.6400394477318  2.49565972222222 9.48076923076923  C 2.36545138888889 8.75147928994083  2.07609953703704 7.93281558185404  1.62760416666667 7.02477810650888  C 1.1791087962963 6.11674063116371  0.636574074074074 5.29807692307692  0 4.56878698224852  L 7.92100694444444 4.56878698224852  C 10.0766782407407 3.1388067061144  12.6446759259259 2.01984714003944  15.625 1.21190828402367  C 18.6053240740741 0.403969428007886  21.7303240740741 0  25 0  C 28.2407407407407 0  31.2861689814815 0.40039447731755  34.1362847222222 1.20118343195266  Z " fill-rule="nonzero" fill="#000000" stroke="none" transform="matrix(1 0 0 1 316 861 )" />
  </g>
</svg>