<?xml version="1.0" encoding="utf-8"?>
<svg version="1.1" xmlns:xlink="http://www.w3.org/1999/xlink" width="42px" height="50px" xmlns="http://www.w3.org/2000/svg">
  <g transform="matrix(1 0 0 1 -133 -922 )">
    <path d="M 39.0434210526316 13.5044642857143  C 40.4986842105263 14.6019345238095  41.4013157894737 16.1086309523809  41.7513157894737 18.0245535714286  C 42.0828947368421 19.5870535714286  42.0460526315789 21.484375  41.6407894736842 23.7165178571429  C 40.0381578947368 31.9754464285714  34.8342105263158 36.1049107142857  26.0289473684211 36.1049107142857  L 24.8131578947368 36.1049107142857  C 24.3526315789474 36.1049107142857  23.9473684210526 36.2583705357143  23.5973684210526 36.5652901785714  C 23.2473684210526 36.8722098214286  23.0263157894737 37.2674851190476  22.9342105263158 37.7511160714286  L 22.8236842105263 38.28125  L 21.3039473684211 47.9352678571429  L 21.2486842105263 48.3537946428571  C 21.1565789473684 48.8374255952381  20.9309210526316 49.2327008928571  20.5717105263158 49.5396205357143  C 20.2125 49.8465401785714  19.8026315789474 50  19.3421052631579 50  L 12.4065789473684 50  C 12.0197368421053 50  11.7157894736842 49.8604910714286  11.4947368421053 49.5814732142857  C 11.2736842105263 49.3024553571429  11.1907894736842 48.9676339285714  11.2460526315789 48.5770089285714  C 11.4118421052632 47.5353422619048  11.6559210526316 45.9728422619048  11.9782894736842 43.8895089285714  C 12.3006578947368 41.8061755952381  12.5447368421053 40.2436755952381  12.7105263157895 39.2020089285714  C 12.8763157894737 38.1603422619048  13.125 36.6024925595238  13.4565789473684 34.5284598214286  C 13.7881578947368 32.4544270833333  14.0368421052632 30.8965773809524  14.2026315789474 29.8549107142857  C 14.2947368421053 29.1666666666667  14.6907894736842 28.8225446428571  15.3907894736842 28.8225446428571  L 19.0105263157895 28.8225446428571  C 21.4605263157895 28.8597470238095  23.6342105263158 28.6644345238095  25.5315789473684 28.2366071428571  C 28.7552631578947 27.5111607142857  31.3986842105263 26.171875  33.4618421052632 24.21875  C 35.3407894736842 22.4516369047619  36.7684210526316 20.1636904761905  37.7447368421053 17.3549107142857  C 38.1868421052632 16.0528273809524  38.5092105263158 14.8158482142857  38.7118421052632 13.6439732142857  C 38.7302631578947 13.5323660714286  38.7532894736842 13.4626116071429  38.7809210526316 13.4347098214286  C 38.8085526315789 13.4068080357143  38.8407894736842 13.3975074404762  38.8776315789474 13.4068080357143  C 38.9144736842105 13.4161086309524  38.9697368421053 13.4486607142857  39.0434210526316 13.5044642857143  Z M 35.4375 4.6875  C 36.4782894736842 6.21279761904762  36.9986842105263 8.03571428571428  36.9986842105263 10.15625  C 36.9986842105263 12.1465773809524  36.575 14.3415178571429  35.7276315789474 16.7410714285714  C 34.2539473684211 21.0751488095238  31.4723684210526 24.0048363095238  27.3828947368421 25.5301339285714  C 25.3013157894737 26.274181547619  22.9802631578947 26.664806547619  20.4197368421053 26.7020089285714  C 20.4197368421053 26.7206101190476  19.5907894736842 26.7299107142857  17.9328947368421 26.7299107142857  L 15.4460526315789 26.7020089285714  C 13.6039473684211 26.7020089285714  12.5171052631579 27.5948660714286  12.1855263157895 29.3805803571429  C 12.1486842105263 29.5293898809524  11.3657894736842 34.4587053571429  9.83684210526316 44.1685267857143  C 9.81842105263158 44.3545386904762  9.70789473684211 44.4475446428571  9.50526315789474 44.4475446428571  L 1.35394736842105 44.4475446428571  C 0.948684210526316 44.4475446428571  0.6125 44.2940848214286  0.345394736842105 43.9871651785714  C 0.0782894736842105 43.6802455357143  -0.0276315789473684 43.3221726190476  0.0276315789473684 42.9129464285714  L 6.43815789473684 1.86941964285715  C 6.53026315789474 1.32998511904762  6.78355263157895 0.883556547619041  7.19802631578947 0.53013392857143  C 7.6125 0.176711309523814  8.08684210526316 0  8.62105263157895 0  L 25.1447368421053 0  C 25.771052631579 0  26.6690789473684 0.120907738095244  27.8388157894737 0.362723214285715  C 29.008552631579 0.604538690476186  30.0355263157895 0.902157738095238  30.9197368421053 1.25558035714285  C 32.8907894736842 2.01822916666666  34.3967105263158 3.16220238095238  35.4375 4.6875  Z " fill-rule="nonzero" fill="#000000" stroke="none" transform="matrix(1 0 0 1 133 922 )" />
  </g>
</svg>