<?xml version="1.0" encoding="utf-8"?>
<svg version="1.1" xmlns:xlink="http://www.w3.org/1999/xlink" width="38px" height="33px" xmlns="http://www.w3.org/2000/svg">
  <g transform="matrix(1 0 0 1 -625 -316 )">
    <path d="M 35 27.4821080026025  L 37.0441587479039 27.4821080026025  C 37.5114589155953 27.4821080026025  37.8088317495808 27.6145087833442  37.9362772498603 27.8793103448276  C 38.0637227501397 28.144111906311  37.9858393888578 28.462589459987  37.7026271660145 28.8347430058556  L 35.0262716601453 32.3129472999349  C 34.743059437302 32.6851008458035  34.396124464319 32.8711776187378  33.9854667411962 32.8711776187378  C 33.5748090180734 32.8711776187378  33.2278740450904 32.6851008458035  32.9446618222471 32.3129472999349  L 30.2683063163779 28.8347430058556  C 29.9850940935346 28.462589459987  29.9072107322527 28.144111906311  30.0346562325321 27.8793103448276  C 30.1621017328116 27.6145087833442  30.4594745667971 27.4821080026025  30.9267747344885 27.4821080026025  L 32 27.4821080026025  L 32 5.4964216005205  L 30.9267747344885 5.4964216005205  C 30.4594745667971 5.4964216005205  30.1621017328116 5.36402081977879  30.0346562325321 5.09921925829538  C 29.9072107322527 4.83441769681197  29.9850940935346 4.51594014313598  30.2683063163779 4.1437865972674  L 32.9446618222471 0.665582303188027  C 33.2278740450904 0.293428757319451  33.5748090180734 0.107351984385167  33.9854667411962 0.107351984385167  C 34.396124464319 0.107351984385167  34.743059437302 0.293428757319451  35.0262716601453 0.665582303188027  L 37.7026271660145 4.1437865972674  C 37.9858393888578 4.51594014313598  38.0637227501397 4.83441769681197  37.9362772498603 5.09921925829538  C 37.8088317495808 5.36402081977879  37.5114589155953 5.4964216005205  37.0441587479039 5.4964216005205  L 35 5.4964216005205  L 35 27.4821080026025  Z M 0 0.0429407937540653  L 1.72051425377306 0.0214703968770327  L 2.86752375628843 0.601171112556929  C 3.03745108999441 0.672739102147037  4.53139556549283 0.708523096942096  7.34935718278368 0.708523096942096  C 7.97242407303894 0.708523096942096  8.90702440842184 0.69420949902407  10.1531581889324 0.665582303188027  C 11.3992919694429 0.636955107351981  12.3338923048258 0.622641509433962  12.9569591950811 0.622641509433962  C 13.466741196199 0.622641509433962  14.2278740450904 0.626219908913465  15.2403577417552 0.633376707872478  C 16.25284143842 0.640533506831488  17.0139742873113 0.644111906310995  17.5237562884293 0.644111906310995  L 23.7473448854108 0.644111906310995  C 23.8323085522638 0.644111906310995  23.9809949692566 0.647690305790498  24.193404136389 0.654847104749511  C 24.4058133035215 0.662003903708521  24.5509595677287 0.662003903708521  24.6288429290106 0.654847104749511  C 24.7067262902925 0.647690305790498  24.8200111794298 0.626219908913465  24.9686975964226 0.590435914118413  C 25.1173840134153 0.554651919323354  25.2412893609093 0.490240728692256  25.3404136389044 0.397202342225115  C 25.4395379168996 0.304163955757968  25.5457425004658 0.178919973975275  25.6590273896031 0.0214703968770327  L 26.5511458915595 0  C 26.6077883361282 0  26.7069126141234 0.003578399479503  26.848518725545 0.0107351984385163  C 26.9901248369667 0.017891997397526  27.0892491149618 0.0214703968770327  27.1458915595305 0.0214703968770327  C 27.1742127818148 1.62459336369551  27.188373392957 4.02927781392322  27.188373392957 7.23552374756018  C 27.188373392957 8.38061158100195  27.1529718651015 9.16070266753415  27.0821688093907 9.5757970071568  C 26.5299049748463 9.77618737800911  26.0484441960127 9.90500975927131  25.6377864728899 9.9622641509434  C 25.2837711943358 9.33246584255042  24.9014346934973 8.41639557579701  24.4907769703745 7.21405335068315  C 24.448295136948 7.08523096942095  24.3704117756661 6.74170461938842  24.2571268865288 6.18347430058556  C 24.1438419973915 5.62524398178269  24.0411775666108 5.09921925829538  23.9491335941867 4.60540013012362  C 23.8570896217626 4.11158100195186  23.8039873299795 3.85751463890696  23.7898267188373 3.84320104098894  C 23.7048630519843 3.72869225764476  23.6198993851314 3.63923227065713  23.5349357182784 3.57482108002602  C 23.4499720514254 3.51040988939493  23.3402273150736 3.46746909564086  23.205701509223 3.44599869876382  C 23.0711757033725 3.42452830188679  22.9791317309484 3.40663630448926  22.9295695919508 3.39232270657124  C 22.8800074529532 3.37800910865322  22.7525619526738 3.37443070917371  22.5472330911124 3.38158750813273  C 22.341904229551 3.38874430709174  22.2250791876281 3.39232270657124  22.1967579653438 3.39232270657124  C 21.956027575927 3.39232270657124  21.48518725545 3.38874430709174  20.7842370039128 3.38158750813273  C 20.0832867523756 3.37443070917371  19.55580398733 3.37085230969421  19.2017887087759 3.37085230969421  C 18.8477734302217 3.37085230969421  18.3946338736724 3.38516590761223  17.842370039128 3.41379310344828  C 17.2901062045836 3.44242029928432  16.7874045090367 3.48536109303838  16.3342649524874 3.54261548471047  C 16.2068194522079 4.70201691607027  16.1501770076393 5.67534157449577  16.1643376187814 6.46258945998699  C 16.1643376187814 7.80806766428106  16.1784982299236 10.5849056603774  16.2068194522079 14.7931034482759  C 16.2351406744923 19.0013012361744  16.2493012856344 22.2576447625244  16.2493012856344 24.562134027326  C 16.2493012856344 24.7911515940143  16.2316005217067 25.3028627195836  16.1961989938513 26.0972674040338  C 16.1607974659959 26.8916720884841  16.1607974659959 27.5465191932336  16.1961989938513 28.0618087182824  C 16.2316005217067 28.5770982433312  16.3201043413453 29.0709173715029  16.4617104527669 29.5432661027977  C 17.0281348984535 29.8438516590761  17.9060927892677 30.1480156148341  19.0955841252096 30.4557579700716  C 20.2850754611515 30.763500325309  21.1347121296814 31.031880286272  21.6444941307993 31.2608978529603  C 21.7152971865102 31.8334417696812  21.7506987143656 32.1912817176318  21.7506987143656 32.334417696812  C 21.7506987143656 32.5348080676643  21.7294577976523 32.7423552374756  21.6869759642258 32.9570592062459  L 20.9647847959754 32.978529603123  C 19.8885783491709 33.007156798959  18.3450717346749 32.9499024072869  16.3342649524874 32.8067664281067  C 14.3234581703 32.6636304489265  12.8578349170859 32.5920624593364  11.9373951928452 32.5920624593364  C 11.2293646357369 32.5920624593364  10.1602384945034 32.6564736499675  8.73001676914477 32.7852960312297  C 7.2997950437861 32.9141184124919  6.22358859698155 32.978529603123  5.50139742873113 32.978529603123  C 5.45891559530464 32.2485361093038  5.43767467859139 31.8763825634353  5.43767467859139 31.8620689655172  L 5.43767467859139 31.6688353936239  C 5.6784050680082 31.2823682498373  6.11384386062977 30.9746258945999  6.74399105645612 30.7456083279115  C 7.37413825228247 30.5165907612232  8.0715483510341 30.3090435914118  8.83622135271101 30.1229668184776  C 9.60089435438793 29.9368900455433  10.1531581889324 29.74365647365  10.4930128563443 29.5432661027977  C 10.7620644680455 28.9420949902407  10.896590273896 26.2010409889395  10.896590273896 21.3201040988939  C 10.896590273896 19.8744307091737  10.8753493571828 17.7059206245934  10.8328675237563 14.8145738451529  C 10.7903856903298 11.9232270657124  10.7691447736165 9.75471698113207  10.7691447736165 8.30904359141184  L 10.7691447736165 5.79700715679896  C 10.7691447736165 5.76837996096291  10.7726849264021 5.65744957709824  10.7797652319732 5.46421600520494  C 10.7868455375443 5.27098243331165  10.7903856903298 5.09206245933637  10.7903856903298 4.92745608327912  C 10.7903856903298 4.76284970722186  10.7833053847587 4.58035133376708  10.7691447736165 4.37996096291477  C 10.7549841624744 4.17957059206246  10.7337432457611 4.00780741704619  10.7054220234768 3.86467143786597  C 10.6771008011925 3.72153545868575  10.6416992733371 3.62134027325959  10.5992174399106 3.56408588158751  C 10.4434507173467 3.39232270657124  9.29644121483138 3.30644111906311  7.15818893236445 3.30644111906311  C 6.690888764673 3.30644111906311  6.03242034656233 3.39232270657124  5.18278367803242 3.56408588158751  C 4.33314700950252 3.73584905660377  3.76672256381591 3.92192582953806  3.48351034097261 4.12231620039037  C 3.21445872927147 4.30839297332466  2.97372833985467 4.82726089785296  2.76131917272219 5.67891997397528  C 2.54891000558971 6.53057905009759  2.32588038010062 7.32498373454782  2.09223029625489 8.06213402732596  C 1.85858021240917 8.7992843201041  1.55766722563816 9.18217306441119  1.18949133594187 9.21080026024724  C 0.594745667970933 8.83864671437866  0.198248555990311 8.52374756018217  0 8.26610279765778  L 0 0.0429407937540653  Z " fill-rule="nonzero" fill="#000000" stroke="none" transform="matrix(1 0 0 1 625 316 )" />
  </g>
</svg>