<?xml version="1.0" encoding="utf-8"?>
<svg version="1.1" xmlns:xlink="http://www.w3.org/1999/xlink" width="30px" height="23px" xmlns="http://www.w3.org/2000/svg">
  <g transform="matrix(1 0 0 1 -24 -148 )">
    <path d="M 25.6877323420074 13.1402961808262  C 25.7001239157373 13.1641984931151  25.7063197026022 13.2000519615485  25.7063197026022 13.2478565861263  L 25.7063197026022 21.8526890101325  C 25.7063197026022 22.1634190698883  25.5885997521685 22.4323200831385  25.3531598513011 22.6593920498831  C 25.1177199504337 22.8864640166277  24.8389095415118 23  24.5167286245353 23  L 17.3791821561338 23  L 17.3791821561338 16.116134060795  L 12.6208178438662 16.116134060795  L 12.6208178438662 23  L 5.48327137546468 23  C 5.16109045848823 23  4.8822800495663 22.8864640166277  4.64684014869888 22.6593920498831  C 4.41140024783147 22.4323200831385  4.29368029739777 22.1634190698883  4.29368029739777 21.8526890101325  L 4.29368029739777 13.2478565861263  C 4.29368029739777 13.2359054299818  4.29677819083024 13.2179786957651  4.30297397769517 13.1940763834762  C 4.3091697645601 13.1701740711873  4.31226765799257 13.1522473369706  4.31226765799257 13.1402961808262  L 15 4.64302416212003  L 25.6877323420074 13.1402961808262  Z M 29.9814126394052 11.5896336710834  C 29.9938042131351 11.7509742790335  29.9504337050805 11.8914003637308  29.8513011152416 12.0109119251754  L 28.6988847583643 13.3374902572097  C 28.5997521685254 13.4450506625097  28.4696406443618 13.5107820213042  28.3085501858736 13.5346843335931  L 28.2527881040892 13.5346843335931  C 28.091697645601 13.5346843335931  27.9615861214374 13.4928552870876  27.8624535315985 13.4091971940764  L 15 3.06547155105222  L 2.13754646840149 13.4091971940764  C 1.98884758364312 13.504806443232  1.84014869888476 13.5466354897376  1.69144981412639 13.5346843335931  C 1.53035935563817 13.5107820213042  1.4002478314746 13.4450506625097  1.30111524163569 13.3374902572097  L 0.148698884758364 12.0109119251754  C 0.0495662949194548 11.8914003637308  0.00619578686493189 11.7509742790335  0.0185873605947955 11.5896336710834  C 0.0309789343246593 11.4282930631333  0.0991325898389096 11.2998181345804  0.223048327137546 11.2042088854248  L 13.5873605947955 0.466095089633672  C 13.9838909541512 0.155365029877888  14.454770755886 0  15 0  C 15.545229244114 0  16.0161090458488 0.155365029877888  16.4126394052045 0.466095089633672  L 20.9479553903346 4.12314886983632  L 20.9479553903346 0.627435697583787  C 20.9479553903346 0.460119511561442  21.003717472119 0.322681215900233  21.1152416356877 0.215120810600157  C 21.2267657992565 0.107560405300078  21.3692688971499 0.0537802026500392  21.542750929368 0.0537802026500392  L 25.1115241635688 0.0537802026500392  C 25.2850061957869 0.0537802026500392  25.4275092936803 0.107560405300078  25.5390334572491 0.215120810600157  C 25.6505576208178 0.322681215900233  25.7063197026022 0.460119511561442  25.7063197026022 0.627435697583787  L 25.7063197026022 7.94154325798909  L 29.7769516728625 11.2042088854248  C 29.9008674101611 11.2998181345804  29.9690210656753 11.4282930631333  29.9814126394052 11.5896336710834  Z " fill-rule="nonzero" fill="#000000" stroke="none" transform="matrix(1 0 0 1 24 148 )" />
  </g>
</svg>