<?xml version="1.0" encoding="utf-8"?>
<svg version="1.1" xmlns:xlink="http://www.w3.org/1999/xlink" width="30px" height="26px" xmlns="http://www.w3.org/2000/svg">
  <g transform="matrix(1 0 0 1 -24 -296 )">
    <path d="M 10.7142857142857 2.16666666666667  L 10.7142857142857 4.33333333333333  L 19.2857142857143 4.33333333333333  L 19.2857142857143 2.16666666666667  L 10.7142857142857 2.16666666666667  Z M 18.75 15  L 30 15  L 30 23.2916666666667  C 30 24.0364583333333  29.7377232142857 24.6740451388889  29.2131696428571 25.2044270833333  C 28.6886160714286 25.7348090277778  28.0580357142857 26  27.3214285714286 26  L 2.67857142857143 26  C 1.94196428571429 26  1.31138392857143 25.7348090277778  0.786830357142857 25.2044270833333  C 0.262276785714286 24.6740451388889  0 24.0364583333333  0 23.2916666666667  L 0 15  L 11.25 15  L 11.25 17.875  C 11.25 18.1684027777778  11.3560267857143 18.4223090277778  11.5680803571429 18.63671875  C 11.7801339285714 18.8511284722222  12.03125 18.9583333333333  12.3214285714286 18.9583333333333  L 17.6785714285714 18.9583333333333  C 17.96875 18.9583333333333  18.2198660714286 18.8511284722222  18.4319196428571 18.63671875  C 18.6439732142857 18.4223090277778  18.75 18.1684027777778  18.75 17.875  L 18.75 15  Z M 12.8571428571429 15.1666666666667  L 17.1428571428571 15.1666666666667  L 17.1428571428571 17.3333333333333  L 12.8571428571429 17.3333333333333  L 12.8571428571429 15.1666666666667  Z M 29.2131696428571 5.12890625  C 29.7377232142857 5.65928819444444  30 6.296875  30 7.04166666666667  L 30 13.5416666666667  L 0 13.5416666666667  L 0 7.04166666666667  C 0 6.296875  0.262276785714286 5.65928819444444  0.786830357142857 5.12890625  C 1.31138392857143 4.59852430555555  1.94196428571429 4.33333333333333  2.67857142857143 4.33333333333333  L 8.57142857142857 4.33333333333333  L 8.57142857142857 1.625  C 8.57142857142857 1.17361111111111  8.72767857142857 0.789930555555552  9.04017857142857 0.473958333333332  C 9.35267857142857 0.157986111111113  9.73214285714286 0  10.1785714285714 0  L 19.8214285714286 0  C 20.2678571428571 0  20.6473214285714 0.157986111111113  20.9598214285714 0.473958333333332  C 21.2723214285714 0.789930555555552  21.4285714285714 1.17361111111111  21.4285714285714 1.625  L 21.4285714285714 4.33333333333333  L 27.3214285714286 4.33333333333333  C 28.0580357142857 4.33333333333333  28.6886160714286 4.59852430555555  29.2131696428571 5.12890625  Z " fill-rule="nonzero" fill="#000000" stroke="none" transform="matrix(1 0 0 1 24 296 )" />
  </g>
</svg>