<?xml version="1.0" encoding="utf-8"?>
<svg version="1.1" xmlns:xlink="http://www.w3.org/1999/xlink" width="36px" height="37px" xmlns="http://www.w3.org/2000/svg">
  <g transform="matrix(1 0 0 1 -21 -11 )">
    <path d="M 11.0089285714286 1.46595982142857  C 13.2321428571429 0.488653273809524  15.5625 0  18 0  C 20.4375 0  22.7678571428571 0.488653273809524  24.9910714285714 1.46595982142857  C 27.2142857142857 2.44326636904762  29.1294642857143 3.7578125  30.7366071428571 5.40959821428571  C 32.34375 7.06138392857143  33.6227678571429 9.0297619047619  34.5736607142857 11.3147321428571  C 35.5245535714286 13.5997023809524  36 15.9947916666667  36 18.5  C 36 20.991443452381  35.5279017857143 23.379650297619  34.5837053571429 25.6646205357143  C 33.6395089285714 27.9495907738095  32.3638392857143 29.91796875  30.7566964285714 31.5697544642857  C 29.1495535714286 33.2215401785714  27.234375 34.5395275297619  25.0111607142857 35.5237165178571  C 22.7879464285714 36.5079055059524  20.4508928571429 37  18 37  C 15.5491071428571 37  13.2120535714286 36.5113467261905  10.9888392857143 35.5340401785714  C 8.765625 34.5567336309524  6.85379464285714 33.2387462797619  5.25334821428571 31.580078125  C 3.65290178571429 29.9214099702381  2.37723214285714 27.9530319940476  1.42633928571429 25.6749441964286  C 0.475446428571428 23.3968563988095  0 21.0052083333333  0 18.5  C 0 15.9947916666667  0.475446428571428 13.5997023809524  1.42633928571429 11.3147321428571  C 2.37723214285714 9.0297619047619  3.65625 7.06138392857143  5.26339285714286 5.40959821428571  C 6.87053571428571 3.7578125  8.78571428571429 2.44326636904762  11.0089285714286 1.46595982142857  Z M 24.2879464285714 21.1428571428571  C 27.5022321428571 21.1428571428571  29.5513392857143 23.3934151785714  30.4352678571429 27.89453125  C 32.4308035714286 25.0727306547619  33.4285714285714 21.9412202380952  33.4285714285714 18.5  C 33.4285714285714 16.3526785714286  33.0200892857143 14.3017113095238  32.203125 12.3470982142857  C 31.3861607142857 10.3924851190476  30.2879464285714 8.70628720238095  28.9084821428571 7.28850446428571  C 27.5290178571429 5.87072172619048  25.8883928571429 4.74200148809524  23.9866071428571 3.90234375  C 22.0848214285714 3.06268601190476  20.0892857142857 2.64285714285714  18 2.64285714285714  C 15.9107142857143 2.64285714285714  13.9151785714286 3.06268601190476  12.0133928571429 3.90234375  C 10.1116071428571 4.74200148809524  8.47098214285714 5.87072172619048  7.09151785714286 7.28850446428571  C 5.71205357142857 8.70628720238095  4.61383928571429 10.3924851190476  3.796875 12.3470982142857  C 2.97991071428571 14.3017113095238  2.57142857142857 16.3526785714286  2.57142857142857 18.5  C 2.57142857142857 21.9412202380952  3.56919642857143 25.0727306547619  5.56473214285714 27.89453125  C 6.44866071428571 23.3934151785714  8.49776785714286 21.1428571428571  11.7120535714286 21.1428571428571  C 13.4665178571429 22.9047619047619  15.5625 23.7857142857143  18 23.7857142857143  C 20.4375 23.7857142857143  22.5334821428571 22.9047619047619  24.2879464285714 21.1428571428571  Z M 23.4542410714286 20.1414620535714  C 24.9609375 18.5929129464286  25.7142857142857 16.7243303571429  25.7142857142857 14.5357142857143  C 25.7142857142857 12.3470982142857  24.9609375 10.478515625  23.4542410714286 8.92996651785714  C 21.9475446428571 7.38141741071429  20.1294642857143 6.60714285714286  18 6.60714285714286  C 15.8705357142857 6.60714285714286  14.0524553571429 7.38141741071429  12.5457589285714 8.92996651785714  C 11.0390625 10.478515625  10.2857142857143 12.3470982142857  10.2857142857143 14.5357142857143  C 10.2857142857143 16.7243303571429  11.0390625 18.5929129464286  12.5457589285714 20.1414620535714  C 14.0524553571429 21.6900111607143  15.8705357142857 22.4642857142857  18 22.4642857142857  C 20.1294642857143 22.4642857142857  21.9475446428571 21.6900111607143  23.4542410714286 20.1414620535714  Z " fill-rule="nonzero" fill="#000000" stroke="none" transform="matrix(1 0 0 1 21 11 )" />
  </g>
</svg>