<?xml version="1.0" encoding="utf-8"?>
<svg version="1.1" xmlns:xlink="http://www.w3.org/1999/xlink" width="50px" height="50px" xmlns="http://www.w3.org/2000/svg">
  <g transform="matrix(1 0 0 1 -648 -840 )">
    <path d="M 34 16.7367788461538  L 16.7367788461538 34  L 34 34  L 34 16.7367788461538  Z M 16 16  L 16 33.2632211538462  L 33.2632211538462 16  L 16 16  Z M 49.7295673076923 34.8858173076923  C 49.9098557692308 35.0661057692308  50 35.2964743589744  50 35.5769230769231  L 50 41.3461538461538  C 50 41.6266025641026  49.9098557692308 41.8569711538462  49.7295673076923 42.0372596153846  C 49.5492788461538 42.2175480769231  49.3189102564103 42.3076923076923  49.0384615384615 42.3076923076923  L 42.3076923076923 42.3076923076923  L 42.3076923076923 49.0384615384615  C 42.3076923076923 49.3189102564103  42.2175480769231 49.5492788461538  42.0372596153846 49.7295673076923  C 41.8569711538462 49.9098557692308  41.6266025641026 50  41.3461538461538 50  L 35.5769230769231 50  C 35.2964743589744 50  35.0661057692308 49.9098557692308  34.8858173076923 49.7295673076923  C 34.7055288461538 49.5492788461538  34.6153846153846 49.3189102564103  34.6153846153846 49.0384615384615  L 34.6153846153846 42  L 8.65384615384615 42  C 8.37339743589744 42.3076923076923  8.14302884615385 42.2175480769231  7.96274038461538 42.0372596153846  C 7.78245192307692 41.8569711538462  7.69230769230769 41.6266025641026  8 41.3461538461538  L 8 15.3846153846154  L 0.961538461538462 15.3846153846154  C 0.681089743589744 15.3846153846154  0.450721153846154 15.2944711538462  0.270432692307692 15.1141826923077  C 0.0901442307692308 14.9338942307692  0 14.7035256410256  0 14.4230769230769  L 0 8.65384615384616  C 0 8.37339743589743  0.0901442307692308 8.14302884615384  0.270432692307692 7.96274038461539  C 0.450721153846154 7.78245192307692  0.681089743589744 7.69230769230769  0.961538461538462 7.69230769230769  L 7.69230769230769 7.69230769230769  L 7.69230769230769 0.961538461538464  C 7.69230769230769 0.681089743589741  7.78245192307692 0.450721153846156  7.96274038461538 0.270432692307693  C 8.14302884615385 0.0901442307692291  8.37339743589744 0  8.65384615384615 0  L 14.4230769230769 0  C 14.7035256410256 0  14.9338942307692 0.0901442307692291  15.1141826923077 0.270432692307693  C 15.2944711538462 0.450721153846156  15.3846153846154 0.681089743589741  15.3846153846154 0.961538461538464  L 15.3846153846154 8  L 40.9555288461538 8  L 48.3473557692308 0.270432692307693  C 48.5476762820513 0.0901442307692291  48.7780448717949 0  49.0384615384615 0  C 49.2988782051282 0  49.5292467948718 0.0901442307692291  49.7295673076923 0.270432692307693  C 49.9098557692308 0.470753205128199  50 0.701121794871795  50 0.961538461538464  C 50 1.22195512820512  49.9098557692308 1.45232371794872  49.7295673076923 1.65264423076923  L 42 9.04447115384616  L 42 34.6153846153846  L 49.0384615384615 34.6153846153846  C 49.3189102564103 34.6153846153846  49.5492788461538 34.7055288461538  49.7295673076923 34.8858173076923  Z " fill-rule="nonzero" fill="#000000" stroke="none" transform="matrix(1 0 0 1 648 840 )" />
  </g>
</svg>