<?xml version="1.0" encoding="utf-8"?>
<svg version="1.1" xmlns:xlink="http://www.w3.org/1999/xlink" width="38px" height="38px" xmlns="http://www.w3.org/2000/svg">
  <g transform="matrix(1 0 0 1 -745 -313 )">
    <path d="M 768.5 313.5  L 759.5 313.5  L 759.5 327.5  L 745.5 327.5  L 745.5 336.5  L 759.5 336.5  L 759.5 350.5  L 768.5 350.5  L 768.5 336.5  L 782.5 336.5  L 782.5 327.5  L 768.5 327.5  L 768.5 313.5  Z " fill-rule="nonzero" fill="#d7d7d7" stroke="none" />
    <path d="M 768.5 313.5  L 759.5 313.5  L 759.5 327.5  L 745.5 327.5  L 745.5 336.5  L 759.5 336.5  L 759.5 350.5  L 768.5 350.5  L 768.5 336.5  L 782.5 336.5  L 782.5 327.5  L 768.5 327.5  L 768.5 313.5  Z " stroke-width="1" stroke="#797979" fill="none" />
  </g>
</svg>