<?xml version="1.0" encoding="utf-8"?>
<svg version="1.1" xmlns:xlink="http://www.w3.org/1999/xlink" width="74px" height="48px" xmlns="http://www.w3.org/2000/svg">
  <g transform="matrix(1 0 0 1 -491 -308 )">
    <path d="M 30 13.6761904761905  L 30 32.8380952380952  L 49.3333333333333 23.3142857142857  L 30 13.6761904761905  Z M 11.1371237458194 0.685714285714283  C 18.0393905611297 0.228571428571428  26.6603493125232 0  37 0  C 41.6198439241917 0  46.0815681902638 0.0571428571428569  50.3851727982163 0.171428571428571  C 54.6887774061687 0.285714285714285  57.8442958008175 0.406349206349203  59.8517279821628 0.533333333333331  L 62.8628762541806 0.685714285714283  C 62.8903753251579 0.685714285714283  63.1241174284653 0.704761904761902  63.5641025641026 0.74285714285714  C 64.0040876997399 0.780952380952384  64.3203270159792 0.819047619047621  64.5128205128205 0.857142857142859  C 64.7053140096618 0.895238095238097  65.0284280936455 0.952380952380954  65.4821627647715 1.02857142857143  C 65.9358974358974 1.10476190476191  66.3277591973244 1.2063492063492  66.6577480490524 1.33333333333333  C 66.9877369007804 1.46031746031746  67.372723894463 1.62539682539682  67.8127090301003 1.82857142857143  C 68.2526941657377 2.03174603174603  68.6789297658863 2.27936507936508  69.0914158305463 2.57142857142857  C 69.5039018952063 2.86349206349206  69.9026384243776 3.2  70.2876254180602 3.58095238095238  C 70.4526198439242 3.73333333333333  70.6657376439985 3.96825396825396  70.9269788182832 4.28571428571429  C 71.1882199925678 4.6031746031746  71.5869565217391 5.34603174603174  72.1231884057971 6.51428571428571  C 72.6594202898551 7.68253968253967  73.0237829803047 8.96507936507936  73.216276477146 10.3619047619048  C 73.4362690449647 11.9873015873016  73.608138238573 13.7206349206349  73.731884057971 15.5619047619048  C 73.855629877369 17.4031746031746  73.9312523225567 18.8444444444444  73.958751393534 19.8857142857143  L 73.958751393534 21.4095238095238  L 73.958751393534 26.5904761904762  C 73.9862504645113 30.2730158730159  73.7387588257154 33.9555555555556  73.216276477146 37.6380952380952  C 73.0237829803047 39.0349206349206  72.6800445930881 40.2984126984127  72.1850613154961 41.4285714285714  C 71.6900780379041 42.5587301587302  71.2500929022668 43.3396825396825  70.8651059085842 43.7714285714286  L 70.2876254180602 44.4190476190476  C 69.9026384243776 44.8  69.5039018952063 45.1365079365079  69.0914158305463 45.4285714285714  C 68.6789297658863 45.7206349206349  68.2526941657377 45.9619047619048  67.8127090301003 46.152380952381  C 67.372723894463 46.3428571428571  66.9877369007804 46.5015873015873  66.6577480490524 46.6285714285714  C 66.3277591973244 46.7555555555556  65.9358974358974 46.8571428571429  65.4821627647715 46.9333333333333  C 65.0284280936455 47.0095238095238  64.6984392419175 47.0666666666667  64.4921962095875 47.1047619047619  C 64.2859531772575 47.1428571428571  63.9697138610182 47.1809523809524  63.5434782608696 47.2190476190476  C 63.1172426607209 47.2571428571429  62.8903753251579 47.2761904761905  62.8628762541806 47.2761904761905  C 55.9606094388703 47.7587301587302  47.3396506874768 48  37 48  C 31.3076923076923 47.9492063492063  26.3647342995169 47.8666666666667  22.1711259754738 47.752380952381  C 17.9775176514307 47.6380952380952  15.2207357859532 47.5428571428571  13.9007803790412 47.4666666666667  L 11.8795986622074 47.3142857142857  L 10.3946488294314 47.1619047619048  C 9.40468227424749 47.0349206349206  8.6553325901152 46.9079365079365  8.14659977703456 46.7809523809524  C 7.63786696395392 46.6539682539683  6.93664065403196 46.3873015873016  6.04292084726867 45.9809523809524  C 5.14920104050539 45.5746031746032  4.37235228539576 45.0539682539683  3.7123745819398 44.4190476190476  C 3.54738015607581 44.2666666666667  3.33426235600149 44.031746031746  3.07302118171683 43.7142857142857  C 2.81178000743218 43.3968253968254  2.41304347826087 42.6539682539683  1.8768115942029 41.4857142857143  C 1.34057971014493 40.3174603174603  0.976217019695281 39.0349206349206  0.783723522853958 37.6380952380952  C 0.563730955035303 36.0126984126984  0.391861761426979 34.2793650793651  0.268115942028986 32.4380952380952  C 0.144370122630992 30.5968253968254  0.0687476774433296 29.1555555555556  0.0412486064659978 28.1142857142857  L 0.0412486064659978 26.5904761904762  L 0.0412486064659978 21.4095238095238  C 0.0137495354886659 17.7269841269841  0.261241174284653 14.0444444444444  0.783723522853958 10.3619047619048  C 0.976217019695281 8.96507936507936  1.31995540691193 7.70158730158729  1.8149386845039 6.57142857142857  C 2.30992196209588 5.44126984126984  2.74990709773318 4.66031746031746  3.13489409141583 4.22857142857143  L 3.7123745819398 3.58095238095238  C 4.09736157562245 3.2  4.49609810479376 2.86349206349206  4.90858416945373 2.57142857142857  C 5.32107023411371 2.27936507936508  5.74730583426236 2.03174603174603  6.18729096989967 1.82857142857143  C 6.62727610553698 1.62539682539682  7.01226309921962 1.46031746031746  7.3422519509476 1.33333333333333  C 7.67224080267559 1.2063492063492  8.06410256410256 1.10476190476191  8.51783723522854 1.02857142857143  C 8.97157190635452 0.952380952380954  9.29468599033817 0.895238095238097  9.48717948717949 0.857142857142859  C 9.67967298402081 0.819047619047621  9.99591230026013 0.780952380952384  10.4358974358974 0.74285714285714  C 10.8758825715347 0.704761904761902  11.1096246748421 0.685714285714283  11.1371237458194 0.685714285714283  Z " fill-rule="nonzero" fill="#d9001b" stroke="none" transform="matrix(1 0 0 1 491 308 )" />
  </g>
</svg>